<?xml version="1.0" encoding="UTF-8"?>
<svg width="64" height="64" version="1.1" viewBox="0 0 16.933 16.933" xmlns="http://www.w3.org/2000/svg">
 <path d="m3.7551 8.8453c0.92502-2.1228 2.2395-3.9412 4.571-4.9646 2.0697 0.97902 3.5751 2.7507 4.7303 5.0145-0.89987 0.48168-2.3997-0.57386-3.6332-1.1113 0.30383 0.64144 0.43555 1.3482 0.82618 1.9282 0.36014 0.53469 0.82602 1.0144 1.3611 1.3739 0.86674 0.58245 2.8801 0.99471 2.8936 1.2005-0.07301 0.25369-1.4278 0.53389-2.1833 0.55194-1.513 0.02984-3.5708 0.21066-4.5232-0.38781-0.99943-0.62806-1.3932-1.447-1.275-2.3099 0.11118-0.81145 0.22556-1.5853 0.5255-2.4483-1.9209 1.07-2.3694 1.3317-3.2931 1.1529z" fill="#db8121"/>
</svg>
